<svg height="24" viewBox="0 0 24 24" width="24" xmlns="http://www.w3.org/2000/svg"><path d="m14 2h-8c-1.104 0-2 .896-2 2v16c0 1.104.896 2 2 2h12c1.104 0 2-.896 2-2v-12zm-4.002 12.768h-1.103v3.274h-.917v-3.274h-1.085v-.768h3.105zm2.725 3.274-.365-.731c-.15-.282-.246-.492-.359-.726h-.013c-.083.233-.185.443-.312.726l-.335.731h-1.045l1.171-2.045-1.129-1.997h1.05l.354.738c.121.245.21.443.306.671h.013c.096-.258.174-.438.276-.671l.341-.738h1.043l-1.139 1.973 1.198 2.069zm4.384-3.274h-1.104v3.274h-.917v-3.274h-1.085v-.768h3.105v.768zm-3.107-5.768c-.553 0-1 0-1 0v-5l5 5z"/></svg>